<?xml version="1.0" standalone="no"?>
<!DOCTYPE svg PUBLIC "-//W3C//DTD SVG 1.1//EN" "http://www.w3.org/Graphics/SVG/1.1/DTD/svg11.dtd" >
<svg xmlns="http://www.w3.org/2000/svg" xmlns:xlink="http://www.w3.org/1999/xlink" version="1.1">
<metadata></metadata>
<defs>
<font id="noasarckregular" horiz-adv-x="800" >
<font-face units-per-em="2048" ascent="1638" descent="-410" />
<missing-glyph horiz-adv-x="300" />
<glyph unicode="&#xd;" horiz-adv-x="508" />
<glyph horiz-adv-x="0" />
<glyph horiz-adv-x="0" />
<glyph unicode=" "  horiz-adv-x="300" />
<glyph unicode="&#x09;" horiz-adv-x="300" />
<glyph unicode="&#xa0;" horiz-adv-x="300" />
<glyph unicode="!" horiz-adv-x="300" d="M0 0v200h200v-200h-200zM0 400v1000h200v-1000h-200z" />
<glyph unicode="&#x22;" horiz-adv-x="600" d="M0 1050q100 100 50 150h-50v200h200v-150q0 -100 -100 -200h-100zM300 1050q100 100 50 150h-50v200h200v-150q0 -100 -100 -200h-100z" />
<glyph unicode="#" d="M0 300v200h100v400h-100v200h100v300h200v-300h100v300h200v-300h100v-200h-100v-400h100v-200h-100v-300h-200v300h-100v-300h-200v300h-100zM300 500h100v400h-100v-400z" />
<glyph unicode="$" d="M0 300q0 -254 250 -293v-107h200v107q250 39 250 293v200q0 254 -250 293v389q50 -24 50 -82v-100h200v100q0 254 -250 293v107h-200v-107q-250 -39 -250 -293v-200q0 -254 250 -293v-389q-50 24 -50 82v100h-200v-100zM200 900v200q0 58 50 82v-364q-50 24 -50 82z M450 218v364q50 -24 50 -82v-200q0 -58 -50 -82z" />
<glyph unicode="%" horiz-adv-x="750" d="M-50 -200l536 1800h214l-536 -1800h-214zM0 1200v200h200v-200h-200zM450 0v200h200v-200h-200z" />
<glyph unicode="&#x26;" horiz-adv-x="950" d="M0 300q0 -300 350 -300q163 0 250 65q87 -65 250 -65v200q-150 0 -150 100v300h150v200h-150v100h-200v-100h-150q-150 0 -150 100v200q0 100 150 100t150 -100v-100h200v100q0 300 -350 300t-350 -300v-200q0 -127 63 -200q-63 -73 -63 -200v-200zM200 300v200 q0 100 150 100h150v-300q0 -100 -150 -100t-150 100z" />
<glyph unicode="'" horiz-adv-x="300" d="M0 1050q100 100 50 150h-50v200h200v-150q0 -100 -100 -200h-100z" />
<glyph unicode="(" horiz-adv-x="450" d="M0 100q0 -300 350 -300v200q-150 0 -150 100v1200q0 100 150 100v200q-350 0 -350 -300v-1200z" />
<glyph unicode=")" horiz-adv-x="450" d="M0 0v-200q350 0 350 300v1200q0 300 -350 300v-200q150 0 150 -100v-1200q0 -100 -150 -100z" />
<glyph unicode="*" horiz-adv-x="600" d="M8 1068l142 82l-142 82l50 86l142 -82v164h100v-164l142 82l50 -86l-142 -82l142 -82l-50 -86l-142 82v-164h-100v164l-142 -82z" />
<glyph unicode="+" horiz-adv-x="700" d="M0 450v200h200v200h200v-200h200v-200h-200v-200h-200v200h-200z" />
<glyph unicode="," horiz-adv-x="300" d="M0 0v200h200v-150q0 -100 -100 -200h-100q100 100 50 150h-50z" />
<glyph unicode="-" horiz-adv-x="700" d="M0 450v200h600v-200h-600z" />
<glyph unicode="." horiz-adv-x="300" d="M0 0v200h200v-200h-200z" />
<glyph unicode="/" horiz-adv-x="750" d="M-50 -200l536 1800h214l-536 -1800h-214z" />
<glyph unicode="0" d="M0 300q0 -300 350 -300t350 300v800q0 300 -350 300t-350 -300v-800zM200 300v800q0 100 150 100t150 -100v-800q0 -100 -150 -100t-150 100z" />
<glyph unicode="1" horiz-adv-x="400" d="M0 1200h100v-1200h200v1400h-300v-200z" />
<glyph unicode="2" d="M0 0h700v200h-500v300q0 100 150 100q350 0 350 300v200q0 300 -350 300t-350 -300v-100h200v100q0 100 150 100t150 -100v-200q0 -100 -150 -100q-350 0 -350 -300v-500z" />
<glyph unicode="3" d="M0 300q0 -300 350 -300t350 300v200q0 127 -63 200q63 73 63 200v200q0 300 -350 300t-350 -300v-100h200v100q0 100 150 100t150 -100v-200q0 -100 -150 -100h-150v-200h150q150 0 150 -100v-200q0 -100 -150 -100t-150 100v100h-200v-100z" />
<glyph unicode="4" d="M0 250v200l400 950h200v-950h100v-200h-100v-250h-200v250h-400zM221 450h179v425z" />
<glyph unicode="5" d="M0 300v100h200v-100q0 -100 150 -100t150 100v300q0 100 -150 100t-150 -100h-200v800h700v-200h-500v-318q65 18 150 18q350 0 350 -300v-300q0 -300 -350 -300t-350 300z" />
<glyph unicode="6" d="M0 300q0 -300 350 -300t350 300v200q0 300 -350 300h-150v300q0 100 150 100t150 -100v-100h200v100q0 300 -350 300t-350 -300v-800zM200 300v300h150q150 0 150 -100v-200q0 -100 -150 -100t-150 100z" />
<glyph unicode="7" d="M0 0l470 1200h-470v200h700v-200l-470 -1200h-230z" />
<glyph unicode="8" d="M0 300q0 -300 350 -300t350 300v200q0 127 -63 200q63 73 63 200v200q0 300 -350 300t-350 -300v-200q0 -127 63 -200q-63 -73 -63 -200v-200zM200 300v200q0 100 150 100t150 -100v-200q0 -100 -150 -100t-150 100zM200 900v200q0 100 150 100t150 -100v-200 q0 -100 -150 -100t-150 100z" />
<glyph unicode="9" d="M0 300q0 -300 350 -300t350 300v800q0 300 -350 300t-350 -300v-200q0 -300 350 -300h150v-300q0 -100 -150 -100t-150 100v100h-200v-100zM200 900v200q0 100 150 100t150 -100v-300h-150q-150 0 -150 100z" />
<glyph unicode=":" horiz-adv-x="300" d="M0 200v200h200v-200h-200zM0 700v200h200v-200h-200z" />
<glyph unicode=";" horiz-adv-x="300" d="M0 50q100 100 50 150h-50v200h200v-150q0 -100 -100 -200h-100zM0 700v200h200v-200h-200z" />
<glyph unicode="&#x3c;" d="M0 450l700 -350v250l-400 200l400 200v250l-700 -350v-200z" />
<glyph unicode="=" horiz-adv-x="700" d="M0 250v200h600v-200h-600zM0 650v200h600v-200h-600z" />
<glyph unicode="&#x3e;" d="M0 100l700 350v200l-700 350v-250l400 -200l-400 -200v-250z" />
<glyph unicode="?" d="M0 1000h200v100q0 100 150 100t150 -100v-200q0 -100 -50 -100q-250 0 -250 -300v-100h200v100q0 100 50 100q250 0 250 300v200q0 300 -350 300t-350 -300v-100zM200 0v200h200v-200h-200z" />
<glyph unicode="@" horiz-adv-x="1150" d="M0 300q0 -300 350 -300h350q350 0 350 300v800q0 300 -350 300h-350q-350 0 -350 -300v-800zM200 300v800q0 100 150 100h350q150 0 150 -100v-800q0 -100 -150 -100h-350q-150 0 -150 100zM269 519q0 -219 256 -219q62 0 109 13v-13h146v584q0 219 -255 219 q-256 0 -256 -219v-36h146v36q0 73 110 73q109 0 109 -73v-109h-109q-256 0 -256 -219v-37zM415 519v37q0 73 110 73h109v-111q-1 -72 -109 -72q-110 0 -110 73z" />
<glyph unicode="A" horiz-adv-x="750" d="M-50 0l268 1400h214l268 -1400h-214l-39 200h-244l-39 -200h-214zM241 400h168l-84 440z" />
<glyph unicode="B" d="M0 0v1400h350q350 0 350 -300v-200q0 -127 -63 -200q63 -73 63 -200v-200q0 -300 -350 -300h-350zM200 200h150q150 0 150 100v200q0 100 -150 100h-150v-400zM200 800h150q150 0 150 100v200q0 100 -150 100h-150v-400z" />
<glyph unicode="C" d="M0 300q0 -300 350 -300t350 300v100h-200v-100q0 -100 -150 -100t-150 100v800q0 100 150 100t150 -100v-100h200v100q0 300 -350 300t-350 -300v-800z" />
<glyph unicode="D" d="M0 0h350q350 0 350 300v800q0 300 -350 300h-350v-1400zM200 200v1000h150q150 0 150 -100v-800q0 -100 -150 -100h-150z" />
<glyph unicode="E" d="M0 0v1400h700v-200h-500v-400h400v-200h-400v-400h500v-200h-700z" />
<glyph unicode="F" d="M0 0v1400h700v-200h-500v-400h400v-200h-400v-600h-200z" />
<glyph unicode="G" d="M0 300q0 -300 350 -300t350 300v500h-376v-200h176v-300q0 -100 -150 -100t-150 100v800q0 100 150 100t150 -100v-100h200v100q0 300 -350 300t-350 -300v-800z" />
<glyph unicode="H" d="M0 0v1400h200v-600h300v600h200v-1400h-200v600h-300v-600h-200z" />
<glyph unicode="I" horiz-adv-x="300" d="M0 0v1400h200v-1400h-200z" />
<glyph unicode="J" d="M0 300q0 -300 350 -300t350 300v1100h-200v-1100q0 -100 -150 -100t-150 100v100h-200v-100z" />
<glyph unicode="K" d="M0 0v1400h200v-600l300 600h250l-350 -700l350 -700h-250l-300 600v-600h-200z" />
<glyph unicode="L" horiz-adv-x="700" d="M0 0v1400h200v-1200h400v-200h-600z" />
<glyph unicode="M" horiz-adv-x="1050" d="M0 0v1400h314l161 -840l161 840h314v-1400h-200v878l-168 -878h-214l-168 878v-878h-200z" />
<glyph unicode="N" d="M0 0v1400h200l300 -850v850h200v-1400h-200l-300 850v-850h-200z" />
<glyph unicode="O" d="M0 300q0 -300 350 -300t350 300v800q0 300 -350 300t-350 -300v-800zM200 300v800q0 100 150 100t150 -100v-800q0 -100 -150 -100t-150 100z" />
<glyph unicode="P" d="M0 0v1400h350q350 0 350 -300v-200q0 -300 -350 -300h-150v-600h-200zM200 800h150q150 0 150 100v200q0 100 -150 100h-150v-400z" />
<glyph unicode="Q" d="M0 300q0 -300 350 -300h6l81 -104h263l-120 155q120 73 120 249v800q0 300 -350 300t-350 -300v-800zM200 300v800q0 100 150 100t150 -100v-800q0 -100 -150 -100t-150 100z" />
<glyph unicode="R" d="M0 0v1400h350q350 0 350 -300v-200q0 -127 -63 -200q63 -73 63 -200v-500h-200v500q0 100 -150 100h-150v-600h-200zM200 800h150q150 0 150 100v200q0 100 -150 100h-150v-400z" />
<glyph unicode="S" d="M0 300q0 -300 350 -300t350 300v200q0 300 -350 300q-150 0 -150 100v200q0 100 150 100t150 -100v-100h200v100q0 300 -350 300t-350 -300v-200q0 -300 350 -300q150 0 150 -100v-200q0 -100 -150 -100t-150 100v100h-200v-100z" />
<glyph unicode="T" d="M0 1200v200h700v-200h-250v-1200h-200v1200h-250z" />
<glyph unicode="U" d="M0 300q0 -300 350 -300t350 300v1100h-200v-1100q0 -100 -150 -100t-150 100v1100h-200v-1100z" />
<glyph unicode="V" horiz-adv-x="750" d="M-50 1400h214l161 -840l161 840h214l-268 -1400h-214z" />
<glyph unicode="W" horiz-adv-x="1300" d="M-50 1400h214l161 -840l161 840h228l161 -840l161 840h214l-268 -1400h-214l-168 878l-168 -878h-214z" />
<glyph unicode="X" horiz-adv-x="750" d="M-50 0l255 700l-255 700h214l163 -472l159 472h214l-255 -700l255 -700h-214l-159 472l-163 -472h-214z" />
<glyph unicode="Y" horiz-adv-x="750" d="M-50 1400h214l163 -600l159 600h214l-275 -962v-438h-200v438z" />
<glyph unicode="Z" d="M0 0v200l468 1000h-468v200h700v-200l-468 -1000h468v-200h-700z" />
<glyph unicode="[" horiz-adv-x="450" d="M0 -200h350v200h-150v1400h150v200h-350v-1800z" />
<glyph unicode="\" horiz-adv-x="750" d="M-50 1600h214l536 -1800h-214z" />
<glyph unicode="]" horiz-adv-x="450" d="M0 0v-200h350v1800h-350v-200h150v-1400h-150z" />
<glyph unicode="^" horiz-adv-x="500" d="M0 1150l150 250h100l150 -250h-100l-100 100l-100 -100h-100z" />
<glyph unicode="_" d="M0 0v200h700v-200h-700z" />
<glyph unicode="`" horiz-adv-x="450" d="M0 1400h250l100 -300h-150z" />
<glyph unicode="a" d="M0 300q0 -300 350 -300q85 0 150 18v-18h200v800q0 300 -350 300t-350 -300v-50h200v50q0 100 150 100t150 -100v-150h-150q-350 0 -350 -300v-50zM200 300v50q0 100 150 100h150v-151q-1 -99 -150 -99q-150 0 -150 100z" />
<glyph unicode="b" d="M0 0v1400h200v-318q65 18 150 18q350 0 350 -300v-500q0 -300 -350 -300q-85 0 -150 18v-18h-200zM200 300q0 -100 150 -100t150 100v500q0 100 -150 100t-150 -100v-500z" />
<glyph unicode="c" d="M0 300v500q0 300 350 300t350 -300v-50h-200v50q0 100 -150 100t-150 -100v-500q0 -100 150 -100t150 100v50h200v-50q0 -300 -350 -300t-350 300z" />
<glyph unicode="d" d="M0 300v500q0 300 350 300q85 0 150 -18v318h200v-1400h-200v18q-65 -18 -150 -18q-350 0 -350 300zM200 300q0 -100 150 -100t150 100v500q0 100 -150 100t-150 -100v-500z" />
<glyph unicode="e" d="M0 300v500q0 300 350 300t350 -300v-350h-500v-150q0 -100 150 -100t150 100v50h200v-50q0 -300 -350 -300t-350 300zM200 650h300v150q0 100 -150 100t-150 -100v-150z" />
<glyph unicode="f" horiz-adv-x="600" d="M0 900v200h100q0 300 350 300h50v-200h-50q-150 0 -150 -100h200v-200h-200v-900h-200v900h-100z" />
<glyph unicode="g" d="M0 -50h200q0 -100 150 -100t150 100v68q-65 -18 -150 -18q-350 0 -350 300v500q0 300 350 300q85 0 150 -18v18h200v-1150q0 -300 -350 -300t-350 300zM200 300q0 -100 150 -100t150 99v502q-1 99 -150 99q-150 0 -150 -100v-500z" />
<glyph unicode="h" d="M0 0v1400h200v-318q65 18 150 18q350 0 350 -300v-800h-200v800q0 100 -150 100t-150 -100v-800h-200z" />
<glyph unicode="i" horiz-adv-x="300" d="M0 0v1100h200v-1100h-200zM0 1200v200h200v-200h-200z" />
<glyph unicode="j" horiz-adv-x="300" d="M-150 -150q150 0 150 100v1150h200v-1150q0 -300 -350 -300v200zM0 1200v200h200v-200h-200z" />
<glyph unicode="k" d="M0 0v1400h200v-733l267 433h233l-328 -531l378 -569h-233l-317 474v-474h-200z" />
<glyph unicode="l" horiz-adv-x="300" d="M0 0v1400h200v-1400h-200z" />
<glyph unicode="m" horiz-adv-x="1300" d="M0 0v1100h200v-18q65 18 150 18q163 0 250 -65q87 65 250 65q350 0 350 -300v-800h-200v800q0 100 -150 100t-150 -100v-800h-200v800q0 100 -150 100t-150 -100v-800h-200z" />
<glyph unicode="n" d="M0 0v1100h200v-18q65 18 150 18q350 0 350 -300v-800h-200v800q0 100 -150 100t-150 -100v-800h-200z" />
<glyph unicode="o" d="M0 300v500q0 300 350 300t350 -300v-500q0 -300 -350 -300t-350 300zM200 300q0 -100 150 -100t150 100v500q0 100 -150 100t-150 -100v-500z" />
<glyph unicode="p" d="M0 -300v1400h200v-18q65 18 150 18q350 0 350 -300v-500q0 -300 -350 -300q-85 0 -150 18v-318h-200zM200 300q0 -100 150 -100t150 100v500q0 100 -150 100t-150 -100v-500z" />
<glyph unicode="q" d="M0 300v500q0 300 350 300q85 0 150 -18v18h200v-1400h-200v318q-65 -18 -150 -18q-350 0 -350 300zM200 300q0 -100 150 -100t150 100v500q0 100 -150 100t-150 -100v-500z" />
<glyph unicode="r" d="M0 0v1100h200v-18q65 18 150 18q350 0 350 -300v-50h-200v50q0 100 -150 100t-150 -100v-800h-200z" />
<glyph unicode="s" d="M0 300q0 -300 350 -300t350 300v50q0 300 -350 300q-150 0 -150 100v50q0 100 150 100t150 -100v-50h200v50q0 300 -350 300t-350 -300v-50q0 -300 350 -300q150 0 150 -100v-50q0 -100 -150 -100t-150 100v50h-200v-50z" />
<glyph unicode="t" horiz-adv-x="600" d="M0 900v200h100v300h200v-300h200v-200h-200v-600q0 -100 150 -100h50v-200h-50q-350 0 -350 300v600h-100z" />
<glyph unicode="u" d="M0 300v800h200v-800q0 -100 150 -100t150 100v800h200v-1100h-200v18q-65 -18 -150 -18q-350 0 -350 300z" />
<glyph unicode="v" horiz-adv-x="750" d="M-50 1101h214l161 -661l161 661h214l-268 -1101h-214z" />
<glyph unicode="w" horiz-adv-x="1300" d="M-50 1101h214l161 -661l161 661h228l161 -661l161 661h214l-268 -1101h-214l-168 690l-168 -690h-214z" />
<glyph unicode="x" horiz-adv-x="750" d="M-50 0l255 551l-255 550h214l163 -371l159 371h214l-255 -550l255 -551h-214l-159 371l-163 -371h-214z" />
<glyph unicode="y" horiz-adv-x="750" d="M-50 1101h214l161 -661l161 661h214l-268 -1101q-82 -300 -382 -300v200q100 0 138 50q30 40 30 79q0 11 -2 21z" />
<glyph unicode="z" d="M0 0v200l450 700h-450v200h700v-200l-450 -700h450v-200h-700z" />
<glyph unicode="{" horiz-adv-x="600" d="M0 600h150v-500q0 -300 350 -300v200q-150 0 -150 100v1200q0 100 150 100v200q-350 0 -350 -300v-500h-150v-200z" />
<glyph unicode="|" horiz-adv-x="300" d="M0 -200v1800h200v-1800h-200z" />
<glyph unicode="}" horiz-adv-x="600" d="M0 0v-200q350 0 350 300v500h150v200h-150v500q0 300 -350 300v-200q150 0 150 -100v-1200q0 -100 -150 -100z" />
<glyph unicode="~" horiz-adv-x="900" d="M0 600v200q200 150 400 0q200 -100 400 0v-200q-200 -100 -400 0q-200 150 -400 0z" />
<glyph unicode="&#xa1;" horiz-adv-x="300" d="M0 -200v1000h200v-1000h-200zM0 1000v200h200v-200h-200z" />
<glyph unicode="&#xa2;" d="M-30 -200l125 419q-95 75 -95 231v500q0 300 350 300q27 0 51 -2l105 352h214l-123 -413q103 -74 103 -237v-50h-188l-164 -550h2q150 0 150 100v50h200v-50q0 -300 -350 -300q-32 0 -61 3l-105 -353h-214zM200 572l142 478q-142 -3 -142 -100v-378z" />
<glyph unicode="&#xa3;" horiz-adv-x="950" d="M0 0v200h150v150h-150v200h150v100h-150v200h150v250q0 300 350 300t350 -300v-100h-200v100q0 100 -150 100t-150 -100v-250h400v-200h-400v-100h400v-200h-400v-150h500v-200h-850z" />
<glyph unicode="&#xa4;" horiz-adv-x="900" d="M10 383l109 108q-70 90 -70 210t70 210l-109 108l71 71l108 -109q90 70 210 70t210 -70l108 109l71 -71l-109 -108q70 -90 70 -210t-70 -210l109 -108l-71 -71l-108 109q-90 -70 -210 -70t-210 70l-108 -109zM250 698.5q0 -63.5 44 -107.5t107.5 -44t107.5 44t44 107.5 t-44 107.5t-107.5 44t-107.5 -44t-44 -107.5z" />
<glyph unicode="&#xa5;" horiz-adv-x="750" d="M-50 1400h214l163 -600l159 600h214l-229 -800h129v-200h-175v-100h175v-200h-175v-100h-200v100h-175v200h175v100h-175v200h129z" />
<glyph unicode="&#xa6;" horiz-adv-x="300" d="M0 0v600h200v-600h-200zM0 800v600h200v-600h-200z" />
<glyph unicode="&#xa7;" d="M0 300q0 -300 350 -300t350 300q0 127 -63 200q63 73 63 200q0 300 -350 300q-150 0 -150 100t150 100t150 -100h200q0 300 -350 300t-350 -300q0 -127 63 -200q-63 -73 -63 -200q0 -300 350 -300q150 0 150 -100t-150 -100t-150 100h-200zM200 700q0 100 150 100 t150 -100t-150 -100t-150 100z" />
<glyph unicode="&#xa8;" horiz-adv-x="600" d="M0 1200v200h200v-200h-200zM300 1200v200h200v-200h-200z" />
<glyph unicode="&#xa9;" horiz-adv-x="1150" d="M0 300q0 -300 350 -300h350q350 0 350 300v800q0 300 -350 300h-350q-350 0 -350 -300v-800zM200 300v800q0 100 150 100h350q150 0 150 -100v-800q0 -100 -150 -100h-350q-150 0 -150 100zM330 471q0 -171 200 -171t200 171v58h-114v-58q0 -57 -86 -57t-86 57v458 q0 57 86 57t86 -57v-58h114v58q0 171 -200 171t-200 -171v-458z" />
<glyph unicode="&#xaa;" horiz-adv-x="350" d="M0 1145q0 -95 111 -95q27 0 48 6v-6h64v255q0 95 -112 95q-111 0 -111 -95v-16h64v16q0 31 47 31q48 0 48 -31v-48h-48q-111 0 -111 -96v-16zM64 1145v16q0 32 47 32h48v-48q0 -31 -48 -31q-47 0 -47 31z" />
<glyph unicode="&#xab;" horiz-adv-x="1100" d="M0 550l700 -450l-400 450l400 450zM300 550l700 -450l-400 450l400 450z" />
<glyph unicode="&#xac;" horiz-adv-x="900" d="M0 750h600v-200h200v400h-800v-200z" />
<glyph unicode="&#xad;" horiz-adv-x="700" d="M0 450v200h600v-200h-600z" />
<glyph unicode="&#xae;" horiz-adv-x="1150" d="M0 300q0 -300 350 -300h350q350 0 350 300v800q0 300 -350 300h-350q-350 0 -350 -300v-800zM200 300v800q0 100 150 100h350q150 0 150 -100v-800q0 -100 -150 -100h-350q-150 0 -150 100zM330 300v800h200q200 0 200 -171v-115q0 -72 -36 -114q36 -42 36 -114v-286 h-114v286q0 57 -86 57h-86v-343h-114zM444 757h86q86 0 86 57v115q0 57 -86 57h-86v-229z" />
<glyph unicode="&#xaf;" d="M0 1200v200h700v-200h-700z" />
<glyph unicode="&#xb0;" horiz-adv-x="450" d="M0 1225q0 73 51 124t124 51q72 0 123.5 -51t51.5 -124q0 -72 -51.5 -123.5t-123.5 -51.5q-73 0 -124 51.5t-51 123.5zM100 1225q0 -31 22 -53t53 -22t53 22t22 53t-22 53t-53 22t-53 -22t-22 -53z" />
<glyph unicode="&#xb1;" horiz-adv-x="700" d="M0 150v200h200v200h-200v200h200v200h200v-200h200v-200h-200v-200h200v-200h-600z" />
<glyph unicode="&#xb2;" horiz-adv-x="300" d="M0 1050h175v50h-125v75q0 25 38 25q87 0 87 75v50q0 75 -87 75q-88 0 -88 -75v-25h50v25q0 25 38 25q37 0 37 -25v-50q0 -25 -37 -25q-88 0 -88 -75v-125z" />
<glyph unicode="&#xb3;" horiz-adv-x="300" d="M0 1125q0 -75 88 -75q87 0 87 75v50q0 32 -16 50q16 18 16 50v50q0 75 -87 75q-88 0 -88 -75v-25h50v25q0 25 38 25q37 0 37 -25v-50q0 -25 -37 -25h-38v-50h38q37 0 37 -25v-50q0 -25 -37 -25q-38 0 -38 25v25h-50v-25z" />
<glyph unicode="&#xb4;" horiz-adv-x="450" d="M0 1100l100 300h250l-200 -300h-150z" />
<glyph unicode="&#xb5;" d="M0 -300v1400h200v-800q0 -100 150 -100t150 100v800h200v-1100h-200v18q-65 -18 -150 -18t-150 18v-318h-200z" />
<glyph unicode="&#xb6;" horiz-adv-x="900" d="M0 900v200q0 300 350 300h450v-1400h-150v1250h-100v-1250h-150v600h-50q-350 0 -350 300z" />
<glyph unicode="&#xb7;" horiz-adv-x="300" d="M0 700q0 41 29.5 70.5t70.5 29.5t70.5 -29.5t29.5 -70.5t-29.5 -70.5t-70.5 -29.5t-70.5 29.5t-29.5 70.5z" />
<glyph unicode="&#xb8;" horiz-adv-x="400" d="M0 -150q0 -100 150 -100t150 100t-150 100l17 50l-91 4l-26 -104h100q50 0 50 -50t-50 -50t-50 50h-100z" />
<glyph unicode="&#xb9;" horiz-adv-x="200" d="M0 1350v50h88v-350h-50v300h-38z" />
<glyph unicode="&#xba;" horiz-adv-x="300" d="M0 1125q0 -75 88 -75q87 0 87 75v200q0 75 -87 75q-88 0 -88 -75v-200zM50 1125v200q0 25 38 25q37 0 37 -25v-200q0 -25 -37 -25q-38 0 -38 25z" />
<glyph unicode="&#xbb;" horiz-adv-x="1100" d="M0 100l700 450l-700 450l400 -450zM300 100l700 450l-700 450l400 -450z" />
<glyph unicode="&#xbc;" horiz-adv-x="1250" d="M0 0l1000 1400h150l-1000 -1400h-150zM0 1300v100h175v-701h-100v601h-75zM800 125v100l200 475h100v-475h50v-100h-50v-125h-100v125h-200zM911 225h89v213z" />
<glyph unicode="&#xbd;" horiz-adv-x="1250" d="M0 0l1000 1400h150l-1000 -1400h-150zM0 1300v100h175v-701h-100v601h-75zM800 0h350v100h-250v150q0 50 75 50q175 0 175 150v100q0 150 -175 150t-175 -150v-50h100v50q0 50 75 50t75 -50v-100q0 -50 -75 -50q-175 0 -175 -150v-250z" />
<glyph unicode="&#xbe;" horiz-adv-x="1250" d="M0 0l1000 1400h150l-1000 -1400h-150zM0 849q0 -150 175 -150q176 0 176 150v100q0 64 -32 101q32 36 32 100v100q0 150 -176 150q-175 0 -175 -150v-50h100v50q0 50 75 50t75 -50v-100q0 -50 -75 -50h-75v-101h75q75 0 75 -50v-100q0 -50 -75 -50t-75 50v50h-100v-50z M800 125v100l200 475h100v-475h50v-100h-50v-125h-100v125h-200zM911 225h89v213z" />
<glyph unicode="&#xbf;" d="M0 100q0 -300 350 -300t350 300v100h-200v-100q0 -100 -150 -100t-150 100v200q0 100 50 100q250 0 250 300v100h-200v-100q0 -100 -50 -100q-250 0 -250 -300v-200zM300 1000v200h200v-200h-200z" />
<glyph unicode="&#xc0;" horiz-adv-x="750" d="M-50 0l268 1400h214l268 -1400h-214l-39 200h-244l-39 -200h-214zM161 1748h206l83 -248h-124zM241 400h168l-84 440z" />
<glyph unicode="&#xc1;" horiz-adv-x="750" d="M-50 0l268 1400h214l268 -1400h-214l-39 200h-244l-39 -200h-214zM211 1500l83 248h206l-165 -248h-124zM241 400h168l-84 440z" />
<glyph unicode="&#xc2;" horiz-adv-x="750" d="M-50 0l268 1400h214l268 -1400h-214l-39 200h-244l-39 -200h-214zM172 1500l119 199h80l119 -199h-79l-80 80l-79 -80h-80zM241 400h168l-84 440z" />
<glyph unicode="&#xc3;" horiz-adv-x="750" d="M-50 0l268 1400h214l268 -1400h-214l-39 200h-244l-39 -200h-214zM160 1533v85q85 64 170 0q85 -42 170 0v-85q-85 -42 -170 0q-85 64 -170 0zM241 400h168l-84 440z" />
<glyph unicode="&#xc4;" horiz-adv-x="750" d="M-50 0l268 1400h214l268 -1400h-214l-39 200h-244l-39 -200h-214zM120 1500v161h161v-161h-161zM241 400h168l-84 440zM362 1500v161h161v-161h-161z" />
<glyph unicode="&#xc5;" horiz-adv-x="750" d="M-50 0l268 1400h214l268 -1400h-214l-39 200h-244l-39 -200h-214zM227 1584q0 44 31 75t75 31t75 -31t31 -75t-31 -75t-75 -31t-75 31t-31 75zM241 400h168l-84 440zM288 1584q0 -19 13 -32t32 -13t32 13t13 32t-13 32t-32 13t-32 -13t-13 -32z" />
<glyph unicode="&#xc6;" horiz-adv-x="1300" d="M-50 0l548 1400h702v-200h-500v-400h400v-200h-400v-400h500v-200h-700v200h-257l-79 -200h-214zM321 400h179v450z" />
<glyph unicode="&#xc7;" d="M0 300q0 -266 276 -296l-26 -104h100q50 0 50 -50t-50 -50t-50 50h-100q0 -100 150 -100t150 100t-150 100l17 50q333 7 333 300v100h-200v-100q0 -100 -150 -100t-150 100v800q0 100 150 100t150 -100v-100h200v100q0 300 -350 300t-350 -300v-800z" />
<glyph unicode="&#xc8;" d="M0 0v1400h700v-200h-500v-400h400v-200h-400v-400h500v-200h-700zM200 1748h206l83 -248h-124z" />
<glyph unicode="&#xc9;" d="M0 0v1400h700v-200h-500v-400h400v-200h-400v-400h500v-200h-700zM250 1500l83 248h206l-165 -248h-124z" />
<glyph unicode="&#xca;" d="M0 0v1400h700v-200h-500v-400h400v-200h-400v-400h500v-200h-700zM200 1500l119 199h80l119 -199h-79l-80 80l-79 -80h-80z" />
<glyph unicode="&#xcb;" d="M0 0v1400h700v-200h-500v-400h400v-200h-400v-400h500v-200h-700zM150 1500v161h161v-161h-161zM392 1500v161h161v-161h-161z" />
<glyph unicode="&#xcc;" horiz-adv-x="300" d="M-50 1748h206l83 -248h-124zM0 0v1400h200v-1400h-200z" />
<glyph unicode="&#xcd;" horiz-adv-x="300" d="M0 0v1400h200v-1400h-200zM0 1500l83 248h206l-165 -248h-124z" />
<glyph unicode="&#xce;" horiz-adv-x="300" d="M-60 1501l119 199h80l119 -199h-79l-80 80l-79 -80h-80zM0 0v1400h200v-1400h-200z" />
<glyph unicode="&#xcf;" horiz-adv-x="300" d="M-100 1500v161h161v-161h-161zM0 0v1400h200v-1400h-200zM142 1500v161h161v-161h-161z" />
<glyph unicode="&#xd0;" horiz-adv-x="950" d="M0 600v200h150v600h350q350 0 350 -300v-800q0 -300 -350 -300h-350v600h-150zM350 200h150q150 0 150 100v800q0 100 -150 100h-150v-400h150v-200h-150v-400z" />
<glyph unicode="&#xd1;" d="M0 0v1400h200l300 -850v850h200v-1400h-200l-300 850v-850h-200zM190 1533v85q85 64 170 0q85 -42 170 0v-85q-85 -42 -170 0q-85 64 -170 0z" />
<glyph unicode="&#xd2;" d="M0 300q0 -300 350 -300t350 300v800q0 300 -350 300t-350 -300v-800zM200 300v800q0 100 150 100t150 -100v-800q0 -100 -150 -100t-150 100zM200 1748h206l83 -248h-124z" />
<glyph unicode="&#xd3;" d="M0 300q0 -300 350 -300t350 300v800q0 300 -350 300t-350 -300v-800zM200 300v800q0 100 150 100t150 -100v-800q0 -100 -150 -100t-150 100zM250 1500l83 248h206l-165 -248h-124z" />
<glyph unicode="&#xd4;" d="M0 300q0 -300 350 -300t350 300v800q0 300 -350 300t-350 -300v-800zM190 1501l119 199h80l119 -199h-79l-80 80l-79 -80h-80zM200 300v800q0 100 150 100t150 -100v-800q0 -100 -150 -100t-150 100z" />
<glyph unicode="&#xd5;" d="M0 300q0 -300 350 -300t350 300v800q0 300 -350 300t-350 -300v-800zM190 1533v85q85 64 170 0q85 -42 170 0v-85q-85 -42 -170 0q-85 64 -170 0zM200 300v800q0 100 150 100t150 -100v-800q0 -100 -150 -100t-150 100z" />
<glyph unicode="&#xd6;" d="M0 300q0 -300 350 -300t350 300v800q0 300 -350 300t-350 -300v-800zM150 1500v161h161v-161h-161zM200 300v800q0 100 150 100t150 -100v-800q0 -100 -150 -100t-150 100zM392 1500v161h161v-161h-161z" />
<glyph unicode="&#xd7;" horiz-adv-x="600" d="M0 416l142 141l-142 141l142 142l141 -142l141 142l142 -142l-142 -141l142 -141l-142 -142l-141 142l-141 -142z" />
<glyph unicode="&#xd8;" d="M-20 -200l88 294q-68 74 -68 206v800q0 300 350 300q57 0 104 -8l62 208h214l-90 -303q60 -73 60 -197v-800q0 -300 -350 -300q-51 0 -95 6l-61 -206h-214zM200 539l196 658q-21 3 -46 3q-150 0 -150 -100v-561zM314 202q17 -2 36 -2q150 0 150 100v528z" />
<glyph unicode="&#xd9;" d="M0 300q0 -300 350 -300t350 300v1100h-200v-1100q0 -100 -150 -100t-150 100v1100h-200v-1100zM200 1748h206l83 -248h-124z" />
<glyph unicode="&#xda;" d="M0 300q0 -300 350 -300t350 300v1100h-200v-1100q0 -100 -150 -100t-150 100v1100h-200v-1100zM250 1500l83 248h206l-165 -248h-124z" />
<glyph unicode="&#xdb;" d="M0 300q0 -300 350 -300t350 300v1100h-200v-1100q0 -100 -150 -100t-150 100v1100h-200v-1100zM190 1501l119 199h80l119 -199h-79l-80 80l-79 -80h-80z" />
<glyph unicode="&#xdc;" d="M0 300q0 -300 350 -300t350 300v1100h-200v-1100q0 -100 -150 -100t-150 100v1100h-200v-1100zM150 1500v161h161v-161h-161zM392 1500v161h161v-161h-161z" />
<glyph unicode="&#xdd;" horiz-adv-x="750" d="M-50 1400h214l163 -600l159 600h214l-275 -962v-438h-200v438zM250 1500l83 248h206l-165 -248h-124z" />
<glyph unicode="&#xde;" d="M0 -200v1800h200v-200h150q350 0 350 -300v-800q0 -300 -350 -300h-150v-200h-200zM200 200h150q150 0 150 100v800q0 100 -150 100h-150v-1000z" />
<glyph unicode="&#xdf;" d="M0 0h200v1100q0 100 150 100t150 -100v-200q0 -100 -150 -100h-50v-200h50q150 0 150 -100v-200q0 -100 -150 -100h-50v-200h50q350 0 350 300v200q0 127 -63 200q63 73 63 200v200q0 300 -350 300t-350 -300v-1100z" />
<glyph unicode="&#xe0;" d="M0 300q0 -300 350 -300q85 0 150 18v-18h200v800q0 300 -350 300t-350 -300v-50h200v50q0 100 150 100t150 -100v-150h-150q-350 0 -350 -300v-50zM200 300v50q0 100 150 100h150v-151q-1 -99 -150 -99q-150 0 -150 100zM200 1448h206l83 -248h-124z" />
<glyph unicode="&#xe1;" d="M0 300q0 -300 350 -300q85 0 150 18v-18h200v800q0 300 -350 300t-350 -300v-50h200v50q0 100 150 100t150 -100v-150h-150q-350 0 -350 -300v-50zM200 300v50q0 100 150 100h150v-151q-1 -99 -150 -99q-150 0 -150 100zM211 1200l83 248h206l-165 -248h-124z" />
<glyph unicode="&#xe2;" d="M0 300q0 -300 350 -300q85 0 150 18v-18h200v800q0 300 -350 300t-350 -300v-50h200v50q0 100 150 100t150 -100v-150h-150q-350 0 -350 -300v-50zM200 300v50q0 100 150 100h150v-151q-1 -99 -150 -99q-150 0 -150 100zM200 1200l119 199h80l119 -199h-79l-80 80 l-79 -80h-80z" />
<glyph unicode="&#xe3;" d="M0 300q0 -300 350 -300q85 0 150 18v-18h200v800q0 300 -350 300t-350 -300v-50h200v50q0 100 150 100t150 -100v-150h-150q-350 0 -350 -300v-50zM180 1211v85q85 64 170 0q85 -42 170 0v-85q-85 -42 -170 0q-85 64 -170 0zM200 300v50q0 100 150 100h150v-151 q-1 -99 -150 -99q-150 0 -150 100z" />
<glyph unicode="&#xe4;" d="M0 300q0 -300 350 -300q85 0 150 18v-18h200v800q0 300 -350 300t-350 -300v-50h200v50q0 100 150 100t150 -100v-150h-150q-350 0 -350 -300v-50zM150 1200v161h161v-161h-161zM200 300v50q0 100 150 100h150v-151q-1 -99 -150 -99q-150 0 -150 100zM392 1200v161h161 v-161h-161z" />
<glyph unicode="&#xe5;" d="M0 300q0 -300 350 -300q85 0 150 18v-18h200v800q0 300 -350 300t-350 -300v-50h200v50q0 100 150 100t150 -100v-150h-150q-350 0 -350 -300v-50zM200 300v50q0 100 150 100h150v-151q-1 -99 -150 -99q-150 0 -150 100zM250 1306q0 44 31 75t75 31t75 -31t31 -75 t-31 -75t-75 -31t-75 31t-31 75zM311 1306q0 -19 13 -32t32 -13t32 13t13 32t-13 32t-32 13t-32 -13t-13 -32z" />
<glyph unicode="&#xe6;" horiz-adv-x="1300" d="M0 300q0 -300 350 -300q85 0 150 18v-18h200v18q65 -18 150 -18q350 0 350 300v50h-200v-50q0 -100 -150 -100q-149 0 -150 99v151h500v350q0 300 -350 300q-163 0 -250 -65q-87 65 -250 65q-350 0 -350 -300v-50h200v50q0 100 150 100t150 -100v-150h-150 q-350 0 -350 -300v-50zM200 300v50q0 100 150 100h150v-151q-1 -99 -150 -99q-150 0 -150 100zM700 650v150q0 100 150 100t150 -100v-150h-300z" />
<glyph unicode="&#xe7;" d="M0 300q0 -266 276 -296l-26 -104h100q50 0 50 -50t-50 -50t-50 50h-100q0 -100 150 -100t150 100t-150 100l17 50q333 7 333 300v50h-200v-50q0 -100 -150 -100t-150 100v500q0 100 150 100t150 -100v-50h200v50q0 300 -350 300t-350 -300v-500z" />
<glyph unicode="&#xe8;" d="M0 300v500q0 300 350 300t350 -300v-350h-500v-150q0 -100 150 -100t150 100v50h200v-50q0 -300 -350 -300t-350 300zM200 650h300v150q0 100 -150 100t-150 -100v-150zM200 1448h206l83 -248h-124z" />
<glyph unicode="&#xe9;" d="M0 300v500q0 300 350 300t350 -300v-350h-500v-150q0 -100 150 -100t150 100v50h200v-50q0 -300 -350 -300t-350 300zM200 650h300v150q0 100 -150 100t-150 -100v-150zM211 1200l83 248h206l-165 -248h-124z" />
<glyph unicode="&#xea;" d="M0 300v500q0 300 350 300t350 -300v-350h-500v-150q0 -100 150 -100t150 100v50h200v-50q0 -300 -350 -300t-350 300zM200 650h300v150q0 100 -150 100t-150 -100v-150zM200 1200l119 199h80l119 -199h-79l-80 80l-79 -80h-80z" />
<glyph unicode="&#xeb;" d="M0 300v500q0 300 350 300t350 -300v-350h-500v-150q0 -100 150 -100t150 100v50h200v-50q0 -300 -350 -300t-350 300zM150 1200v161h161v-161h-161zM200 650h300v150q0 100 -150 100t-150 -100v-150zM392 1200v161h161v-161h-161z" />
<glyph unicode="&#xec;" horiz-adv-x="300" d="M-50 1448h206l83 -248h-124zM0 0v1100h200v-1100h-200z" />
<glyph unicode="&#xed;" horiz-adv-x="300" d="M-39 1200l83 248h206l-165 -248h-124zM0 0v1100h200v-1100h-200z" />
<glyph unicode="&#xee;" horiz-adv-x="300" d="M-58 1201l119 199h80l119 -199h-79l-80 80l-79 -80h-80zM0 0v1100h200v-1100h-200z" />
<glyph unicode="&#xef;" horiz-adv-x="300" d="M-103 1200v161h161v-161h-161zM0 0v1100h200v-1100h-200zM139 1200v161h161v-161h-161z" />
<glyph unicode="&#xf0;" d="M0 300v500q0 300 350 300q85 0 150 -18v118h-150v100h150v100h200v-100h50v-100h-50v-900q0 -300 -350 -300t-350 300zM200 300q0 -100 150 -100t150 100v500q0 100 -150 100t-150 -100v-500z" />
<glyph unicode="&#xf1;" d="M0 0v1100h200v-18q65 18 150 18q350 0 350 -300v-800h-200v800q0 100 -150 100t-150 -100v-800h-200zM180 1211v85q85 64 170 0q85 -42 170 0v-85q-85 -42 -170 0q-85 64 -170 0z" />
<glyph unicode="&#xf2;" d="M0 300v500q0 300 350 300t350 -300v-500q0 -300 -350 -300t-350 300zM200 300q0 -100 150 -100t150 100v500q0 100 -150 100t-150 -100v-500zM200 1448h206l83 -248h-124z" />
<glyph unicode="&#xf3;" d="M0 300v500q0 300 350 300t350 -300v-500q0 -300 -350 -300t-350 300zM200 300q0 -100 150 -100t150 100v500q0 100 -150 100t-150 -100v-500zM211 1200l83 248h206l-165 -248h-124z" />
<glyph unicode="&#xf4;" d="M0 300v500q0 300 350 300t350 -300v-500q0 -300 -350 -300t-350 300zM200 300q0 -100 150 -100t150 100v500q0 100 -150 100t-150 -100v-500zM200 1200l119 199h80l119 -199h-79l-80 80l-79 -80h-80z" />
<glyph unicode="&#xf5;" d="M0 300v500q0 300 350 300t350 -300v-500q0 -300 -350 -300t-350 300zM180 1211v85q85 64 170 0q85 -42 170 0v-85q-85 -42 -170 0q-85 64 -170 0zM200 300q0 -100 150 -100t150 100v500q0 100 -150 100t-150 -100v-500z" />
<glyph unicode="&#xf6;" d="M0 300v500q0 300 350 300t350 -300v-500q0 -300 -350 -300t-350 300zM150 1200v161h161v-161h-161zM200 300q0 -100 150 -100t150 100v500q0 100 -150 100t-150 -100v-500zM392 1200v161h161v-161h-161z" />
<glyph unicode="&#xf7;" horiz-adv-x="700" d="M0 450v200h600v-200h-600zM200 200v200h200v-200h-200zM200 700v200h200v-200h-200z" />
<glyph unicode="&#xf8;" d="M0 300v500q0 300 350 300q43 0 81 -5l46 155h166l-60 -203q117 -73 117 -247v-500q0 -300 -350 -300q-41 0 -78 4l-46 -154h-166l60 202q-120 72 -120 248zM200 320l173 579q-11 1 -23 1q-150 0 -150 -100v-480zM330 200h20q150 0 150 100v470z" />
<glyph unicode="&#xf9;" d="M0 300v800h200v-800q0 -100 150 -100t150 100v800h200v-1100h-200v18q-65 -18 -150 -18q-350 0 -350 300zM200 1448h206l83 -248h-124z" />
<glyph unicode="&#xfa;" d="M0 300v800h200v-800q0 -100 150 -100t150 100v800h200v-1100h-200v18q-65 -18 -150 -18q-350 0 -350 300zM211 1200l83 248h206l-165 -248h-124z" />
<glyph unicode="&#xfb;" d="M0 300v800h200v-800q0 -100 150 -100t150 100v800h200v-1100h-200v18q-65 -18 -150 -18q-350 0 -350 300zM200 1200l119 199h80l119 -199h-79l-80 80l-79 -80h-80z" />
<glyph unicode="&#xfc;" d="M0 300v800h200v-800q0 -100 150 -100t150 100v800h200v-1100h-200v18q-65 -18 -150 -18q-350 0 -350 300zM150 1200v161h161v-161h-161zM392 1200v161h161v-161h-161z" />
<glyph unicode="&#xfd;" horiz-adv-x="750" d="M-50 1101h214l161 -661l161 661h214l-268 -1101q-82 -300 -382 -300v200q100 0 138 50t28 100zM211 1200l83 248h206l-165 -248h-124z" />
<glyph unicode="&#xfe;" d="M0 -300v1700h200v-300h150q350 0 350 -300v-500q0 -300 -350 -300h-150v-300h-200zM200 200h150q150 0 150 100v500q0 100 -150 100h-150v-700z" />
<glyph unicode="&#xff;" horiz-adv-x="750" d="M-50 1101h214l161 -661l161 661h214l-268 -1101q-82 -300 -382 -300v200q100 0 138 50t28 100zM120 1200v161h161v-161h-161zM362 1200v161h161v-161h-161z" />
<glyph unicode="&#x2c6;" horiz-adv-x="750" d="M172 1500l119 199h80l119 -199h-79l-80 80l-79 -80h-80z" />
<glyph unicode="&#x2dc;" d="M190 1533v85q85 64 170 0q85 -42 170 0v-85q-85 -42 -170 0q-85 64 -170 0z" />
<glyph unicode="&#x2000;" horiz-adv-x="874" />
<glyph unicode="&#x2001;" horiz-adv-x="1748" />
<glyph unicode="&#x2002;" horiz-adv-x="874" />
<glyph unicode="&#x2003;" horiz-adv-x="1748" />
<glyph unicode="&#x2004;" horiz-adv-x="582" />
<glyph unicode="&#x2005;" horiz-adv-x="437" />
<glyph unicode="&#x2006;" horiz-adv-x="291" />
<glyph unicode="&#x2007;" horiz-adv-x="291" />
<glyph unicode="&#x2008;" horiz-adv-x="218" />
<glyph unicode="&#x2009;" horiz-adv-x="349" />
<glyph unicode="&#x200a;" horiz-adv-x="97" />
<glyph unicode="&#x2010;" horiz-adv-x="700" d="M0 450v200h600v-200h-600z" />
<glyph unicode="&#x2011;" horiz-adv-x="700" d="M0 450v200h600v-200h-600z" />
<glyph unicode="&#x2012;" horiz-adv-x="700" d="M0 450v200h600v-200h-600z" />
<glyph unicode="&#x2013;" horiz-adv-x="900" d="M0 450v200h800v-200h-800z" />
<glyph unicode="&#x2014;" horiz-adv-x="1100" d="M0 450v200h1000v-200h-1000z" />
<glyph unicode="&#x2018;" horiz-adv-x="300" d="M0 1050v150q0 100 100 200h100q-100 -100 -50 -150h50v-200h-200z" />
<glyph unicode="&#x2019;" horiz-adv-x="300" d="M0 1050q100 100 50 150h-50v200h200v-150q0 -100 -100 -200h-100z" />
<glyph unicode="&#x201a;" horiz-adv-x="300" d="M0 0v200h200v-150q0 -100 -100 -200h-100q100 100 50 150h-50z" />
<glyph unicode="&#x201c;" horiz-adv-x="600" d="M0 1050v150q0 100 100 200h100q-100 -100 -50 -150h50v-200h-200zM300 1050v150q0 100 100 200h100q-100 -100 -50 -150h50v-200h-200z" />
<glyph unicode="&#x201d;" horiz-adv-x="600" d="M0 1050q100 100 50 150h-50v200h200v-150q0 -100 -100 -200h-100zM300 1050q100 100 50 150h-50v200h200v-150q0 -100 -100 -200h-100z" />
<glyph unicode="&#x201e;" horiz-adv-x="600" d="M0 0v200h200v-150q0 -100 -100 -200h-100q100 100 50 150h-50zM300 0v200h200v-150q0 -100 -100 -200h-100q100 100 50 150h-50z" />
<glyph unicode="&#x2022;" horiz-adv-x="500" d="M0 700q0 83 58.5 141.5t141.5 58.5t141.5 -58.5t58.5 -141.5t-58.5 -141.5t-141.5 -58.5t-141.5 58.5t-58.5 141.5z" />
<glyph unicode="&#x2026;" horiz-adv-x="900" d="M0 0v200h200v-200h-200zM300 0v200h200v-200h-200zM600 0v200h200v-200h-200z" />
<glyph unicode="&#x202f;" horiz-adv-x="349" />
<glyph unicode="&#x2039;" d="M0 550l700 -450l-400 450l400 450z" />
<glyph unicode="&#x203a;" d="M0 100l700 450l-700 450l400 -450z" />
<glyph unicode="&#x205f;" horiz-adv-x="437" />
<glyph unicode="&#x20ac;" horiz-adv-x="900" d="M0 450h100v-150q0 -300 350 -300t350 300v50h-200v-50q0 -100 -150 -100t-150 100v150h400v200h-400v100h400v200h-400v150q0 100 150 100t150 -100v-50h200v50q0 300 -350 300t-350 -300v-150h-100v-200h100v-100h-100v-200z" />
<glyph unicode="&#x2122;" horiz-adv-x="550" d="M0 1350v50h175v-50h-62v-300h-50v300h-63zM200 1050v350h79l40 -210l40 210h79v-350h-50v220l-42 -220h-54l-42 220v-220h-50z" />
<glyph unicode="&#x25fc;" horiz-adv-x="1100" d="M0 0v1100h1100v-1100h-1100z" />
</font>
</defs>
</svg>
